<svg width="19" height="21" viewBox="0 0 19 21" fill="none" xmlns="http://www.w3.org/2000/svg">
<g id="Group 153">
<path id="Subtract" fill-rule="evenodd" clip-rule="evenodd" d="M10.2733 2.05007C10.2733 2.20222 10.2508 2.34913 10.209 2.48764C11.2365 2.7267 12.1685 3.21469 12.9378 3.88461C12.6139 4.12512 12.3234 4.40814 12.0746 4.72541C11.2507 4.03534 10.2083 3.5976 9.06621 3.53109C8.96779 3.55123 8.86589 3.56181 8.76152 3.56181C8.65712 3.56181 8.55519 3.55123 8.45675 3.53108C5.74703 3.68872 3.59823 5.93609 3.59823 8.68534V15.0008L13.9244 15.0008V11.6706C14.3017 11.8239 14.7044 11.9275 15.1244 11.9733V15.0008H16.8297C17.1611 15.0008 17.4297 15.2695 17.4297 15.6008C17.4297 15.9322 17.1611 16.2008 16.8297 16.2008H15.1244V16.2011H14.5244H2.99823H2.39823V16.2008H0.693018C0.361647 16.2008 0.0930176 15.9322 0.0930176 15.6008C0.0930176 15.2695 0.361647 15.0008 0.693018 15.0008H2.39823V8.68534C2.39823 5.66895 4.49709 3.14277 7.31405 2.48756C7.27225 2.34907 7.24978 2.20219 7.24978 2.05007C7.24978 1.21516 7.92661 0.53833 8.76152 0.53833C9.59643 0.53833 10.2733 1.21516 10.2733 2.05007ZM5.37258 17.4434C5.69215 19.0228 7.08807 20.2118 8.7617 20.2118C10.4353 20.2118 11.8313 19.0228 12.1508 17.4434H10.9124C10.6209 18.3531 9.76824 19.0118 8.7617 19.0118C7.75517 19.0118 6.90246 18.3531 6.61104 17.4434H5.37258Z" fill="#002140"/>
<circle id="Ellipse 68" cx="15.6177" cy="7.5" r="3" fill="#0D986A"/>
</g>
</svg>
